# xmcd
#
# Track frame offsets: 
#        150
#        17392
#        36455
#        55747
#        78415
#
# Disc length: 1283 seconds
#
# Revision: 0
# Processed by: cddbd v1.4PL0 Copyright (c) Steve Scherf et al.
# Submitted via: ExactAudioCopy v0.90b3
#
DISCID=32050105
DTITLE=K.T. Oslin - (Sampler) Live Close By, Visit Ofen and 4 Other Song
DTITLE=s
DYEAR=1900
DGENRE=Country
TTITLE0=Live Close, Visit Often
TTITLE1=80's Ladies
TTITLE2=Come On-A My House
TTITLE3=Hold Me
TTITLE4=A Moment Of Forever
EXTD=
EXTT0=
EXTT1=
EXTT2=
EXTT3=
EXTT4=
PLAYORDER=
